<svg xmlns="http://www.w3.org/2000/svg" width="800" height="400" viewBox="0 0 800 400">
  <defs>
    <linearGradient id="bg" x1="0%" y1="0%" x2="100%" y2="100%">
      <stop offset="0%" style="stop-color:#0055ff;stop-opacity:1"/>
      <stop offset="100%" style="stop-color:#0033aa;stop-opacity:1"/>
    </linearGradient>
  </defs>
  <rect width="800" height="400" fill="url(#bg)" rx="12"/>
  <circle cx="650" cy="80" r="200" fill="rgba(255,255,255,0.05)"/>
  <circle cx="100" cy="350" r="150" fill="rgba(255,255,255,0.05)"/>
  <text x="400" y="160" text-anchor="middle" font-family="Montserrat, sans-serif" font-size="20" font-weight="700" fill="rgba(255,255,255,0.6)">AstraITLink</text>
  <text x="400" y="210" text-anchor="middle" font-family="Montserrat, sans-serif" font-size="36" font-weight="900" fill="#fff">Почему бизнес переходит</text>
  <text x="400" y="260" text-anchor="middle" font-family="Montserrat, sans-serif" font-size="36" font-weight="900" fill="#fff">на VoIP в 2026 году</text>
  <rect x="350" y="290" width="100" height="3" rx="1.5" fill="#ff6b35"/>
  <text x="400" y="330" text-anchor="middle" font-family="Inter, sans-serif" font-size="16" fill="rgba(255,255,255,0.8)">Тренды, аналитика, прогнозы</text>
  <g transform="translate(60,340)" fill="rgba(255,255,255,0.15)">
    <rect x="0" y="0" width="30" height="30" rx="6"/>
    <rect x="45" y="0" width="30" height="30" rx="6"/>
    <rect x="90" y="0" width="30" height="30" rx="6"/>
  </g>
  <g transform="translate(620,340)" fill="rgba(255,255,255,0.15)">
    <rect x="0" y="0" width="8" height="8" rx="2"/>
    <rect x="16" y="0" width="8" height="8" rx="2"/>
    <rect x="32" y="0" width="8" height="8" rx="2"/>
  </g>
</svg>
